<svg xmlns="http://www.w3.org/2000/svg" width="1200" height="675" viewBox="0 0 1200 675"><path fill="#fff" d="M0 0h1200v675H0z"/><path fill="#151515" fill-opacity=".12" d="M0 0h1200v4H0z"/><rect width="1005.28" height="620.771" fill="#151515" fill-opacity=".2" rx="91.389" transform="matrix(-.2334 .08959 0 .25 925 138)"/><rect width="1005.28" height="620.771" fill="#151515" fill-opacity=".2" rx="91.389" transform="matrix(-.2334 .08959 0 .25 1160 292.55)"/><rect width="80" height="32" x="72" y="56" fill="#151515" fill-opacity=".08" rx="4"/><text x="86" y="78" fill="#555" font-family="system-ui, -apple-system, 'Segoe UI', sans-serif" font-size="14" font-weight="600" letter-spacing=".1em">BLOG</text><text x="72" y="138" fill="#151515" font-family="system-ui, -apple-system, 'Segoe UI', sans-serif" font-size="40" font-weight="700">Extension Host</text><text x="72" y="190" fill="#151515" font-family="system-ui, -apple-system, 'Segoe UI', sans-serif" font-size="40" font-weight="700">Architecture: Cocoon&apos;s</text><text x="72" y="242" fill="#151515" font-family="system-ui, -apple-system, 'Segoe UI', sans-serif" font-size="40" font-weight="700">Design for Module</text><text x="72" y="314" fill="#666" font-family="system-ui, -apple-system, 'Segoe UI', sans-serif" font-size="20" font-weight="400">How Cocoon runs VS Code extensions in supervised</text><text x="72" y="346" fill="#666" font-family="system-ui, -apple-system, 'Segoe UI', sans-serif" font-size="20" font-weight="400">Effect-TS fibers with module interception and</text><text x="72" y="378" fill="#666" font-family="system-ui, -apple-system, 'Segoe UI', sans-serif" font-size="20" font-weight="400">gRPC-backed API shims.</text><path fill="#fafafa" d="M0 619h1200v56H0z"/><path stroke="#e5e5e5" d="M0 619h1200"/><text x="72" y="655" fill="#888" font-family="system-ui, -apple-system, 'Segoe UI', sans-serif" font-size="16" font-weight="500">editor.land</text><text x="1128" y="655" fill="#888" font-family="system-ui, -apple-system, 'Segoe UI', sans-serif" font-size="16" font-weight="600" text-anchor="end">Code Editor Land</text></svg>